<svg width="631" height="153" viewBox="0 0 631 153" fill="none" xmlns="http://www.w3.org/2000/svg">
<path d="M97.69 150.12L85.72 116.83H55.7L80.94 53.3L119.23 150.12H164.7L104 4.35H61.14L0 150.12H97.69ZM266.74 143.59V0H228.88V36.12C224.09 35.03 219.52 34.6 214.96 34.6C185.81 34.6 157.74 54.83 157.74 94.43C157.74 134.03 186.68 152.3 220.83 152.3C239.54 152.3 258.03 147.51 266.74 143.6V143.59ZM195.59 93.77C195.59 74.41 207.12 65.05 219.74 65.05C223.22 65.05 226.27 65.7 228.88 66.79V119.66C226.27 120.53 223.22 120.97 219.96 120.97C207.34 120.97 195.59 112.48 195.59 93.77ZM392.71 93.34C392.71 55.92 365.95 34.6 334.18 34.6C302.41 34.6 275.87 55.92 275.87 93.34C275.87 130.76 302.41 152.08 334.18 152.08C365.95 152.08 392.71 130.76 392.71 93.34ZM313.51 93.34C313.51 74.85 323.08 66.14 334.18 66.14C345.28 66.14 355.07 74.84 355.07 93.34C355.07 111.84 345.28 120.54 334.18 120.54C323.08 120.54 313.51 111.84 313.51 93.34ZM511.06 91.81C511.06 53.95 483.65 34.37 453.84 34.37C449.27 34.37 444.49 35.02 439.7 35.89V0H401.84V143.81C413.59 149.25 432.3 152.3 447.09 152.3C481.68 152.3 511.05 131.85 511.05 91.82L511.06 91.81ZM448.84 65.27C461.46 65.27 473.21 73.97 473.21 92.25C473.21 111.83 461.03 120.97 448.19 120.97C444.93 120.97 442.1 120.54 439.7 119.66V67.01C442.53 65.92 445.36 65.27 448.84 65.27ZM583.95 152.08C597.66 152.08 610.93 149.69 622.02 144.03V115.09C610.05 120.31 599.39 123.14 587.86 123.14C573.72 123.14 562.4 117.05 558.27 104.21H629.41C630.06 99.42 630.28 94.64 630.28 89.63C630.28 52.86 604.17 34.59 575.67 34.59C545.21 34.59 519.76 56.78 519.76 93.12C519.76 129.46 547.83 152.08 583.94 152.08H583.95ZM576.11 63.09C584.6 63.09 592.86 68.1 594.82 80.5H557.83C560.66 68.32 568.06 63.09 576.11 63.09Z" fill="#FA0F00"/>
</svg>
